<?xml version="1.0" standalone="no"?>
<!DOCTYPE svg PUBLIC "-//W3C//DTD SVG 20010904//EN"
 "http://www.w3.org/TR/2001/REC-SVG-20010904/DTD/svg10.dtd">
<svg version="1.0" xmlns="http://www.w3.org/2000/svg"
 width="617.000000pt" height="499.000000pt" viewBox="0 0 617.000000 499.000000"
 preserveAspectRatio="xMidYMid meet">

<g transform="translate(0.000000,499.000000) scale(0.100000,-0.100000)"
fill="#000000" stroke="none">
<path d="M4735 4975 c-71 -8 -143 -14 -158 -14 -31 -1 -71 -39 -118 -110 l-28
-43 -3 67 -3 67 -142 -173 -143 -173 0 -87 c0 -133 -18 -160 -40 -59 -7 33
-15 60 -19 59 -3 0 -71 -82 -151 -182 l-145 -182 -16 -82 c-23 -112 -23 -112
-43 -75 -9 17 -20 32 -24 32 -10 0 -143 -152 -217 -247 -96 -124 -105 -148
-105 -285 l0 -120 50 45 c28 25 166 155 308 288 l257 242 -318 -320 -318 -319
51 -36 52 -37 112 40 c122 43 221 90 306 144 l55 35 -43 0 c-41 0 -38 2 90 67
126 64 139 73 243 178 61 61 129 134 153 162 l42 51 -52 26 c-29 14 -51 26
-48 26 3 1 50 14 105 28 l99 27 118 145 c65 80 123 152 128 161 8 13 1 15 -53
11 l-62 -5 113 94 112 93 0 96 c0 53 5 101 10 106 7 7 10 61 8 140 -2 106 -6
129 -18 130 -8 1 -73 -4 -145 -11z"/>
<path d="M5470 3926 c-295 -89 -521 -344 -705 -795 -111 -274 -242 -779 -301
-1168 -3 -24 -22 -48 -77 -96 -155 -137 -258 -204 -369 -238 -73 -23 -110 -24
-153 -3 -46 21 -59 59 -52 148 6 83 55 213 126 334 57 97 185 230 259 270 61
33 134 43 147 21 4 -6 -18 -33 -48 -60 -60 -53 -146 -165 -166 -215 -31 -78
13 -129 84 -100 141 59 308 335 275 456 -28 102 -178 152 -321 105 -349 -114
-671 -510 -685 -840 -3 -79 -3 -80 -40 -108 -43 -31 -66 -34 -90 -10 -14 14
-16 30 -11 97 8 110 27 178 115 406 63 162 75 205 76 256 1 78 -18 104 -76
104 -53 0 -86 -19 -147 -86 -75 -82 -131 -205 -195 -432 -62 -215 -66 -222
-186 -336 -87 -82 -125 -106 -167 -106 -29 0 -33 4 -42 38 -20 69 -13 103 40
202 86 164 138 284 126 296 -11 11 -38 -12 -62 -52 -14 -24 -27 -44 -29 -44
-2 0 14 55 36 123 83 252 53 345 -89 276 -91 -44 -172 -166 -263 -395 -74
-186 -105 -399 -74 -506 6 -21 -68 -78 -100 -78 -51 0 -75 106 -57 246 39 294
195 715 486 1307 53 109 99 216 102 238 14 102 -75 159 -174 112 -49 -23 -119
-96 -173 -178 l-45 -68 -6 34 c-4 19 -12 63 -19 99 -18 101 -81 219 -152 285
-220 204 -547 191 -1020 -41 -526 -259 -1079 -789 -1209 -1160 -29 -81 -24
-193 9 -226 49 -49 237 -17 318 54 41 36 43 61 8 77 -34 15 -30 32 41 177 165
339 477 654 815 824 254 127 529 172 659 108 73 -36 91 -73 91 -182 -1 -286
-143 -615 -407 -946 -90 -112 -295 -316 -413 -411 -242 -194 -530 -365 -715
-425 -117 -38 -242 -56 -332 -47 -77 8 -103 -1 -103 -36 0 -53 40 -86 148
-122 53 -17 99 -33 100 -35 2 -1 -5 -56 -17 -121 -31 -177 -44 -351 -36 -503
15 -317 85 -481 186 -439 35 14 60 67 84 174 56 255 136 556 196 740 38 115
72 215 76 221 5 5 33 20 63 33 226 94 604 332 820 516 85 73 273 262 364 365
27 30 46 48 43 39 -12 -35 -57 -249 -73 -344 -9 -56 -17 -161 -18 -240 -1
-167 15 -234 70 -295 50 -55 98 -67 183 -46 75 19 128 48 209 115 58 48 58 48
81 30 42 -34 95 -42 164 -24 34 9 81 27 104 41 58 33 178 131 238 193 27 28
52 51 55 51 3 0 12 -16 19 -35 27 -76 106 -135 181 -135 49 0 137 39 212 92
l63 46 47 -43 c58 -52 120 -75 206 -75 89 0 169 23 297 84 119 58 218 124 307
205 31 28 58 51 61 51 2 0 7 -17 11 -38 7 -47 32 -71 80 -79 78 -13 183 61
205 144 6 21 22 112 36 201 l25 164 47 59 c25 33 48 58 49 56 2 -2 13 -57 24
-123 37 -220 89 -349 178 -445 87 -94 169 -109 300 -56 182 73 361 255 610
617 117 171 152 233 152 271 0 38 -28 17 -100 -73 -41 -51 -117 -147 -169
-213 -131 -165 -330 -363 -401 -398 -79 -39 -129 -37 -168 7 -86 98 -156 342
-169 588 l-6 117 59 67 c93 107 333 298 351 280 4 -3 -3 -30 -15 -58 -35 -84
4 -90 85 -15 54 50 86 109 86 159 0 96 -118 124 -253 62 -118 -55 -330 -244
-504 -452 -38 -45 -71 -80 -73 -78 -6 5 30 155 72 301 102 354 275 694 450
883 116 125 152 127 143 7 -11 -136 -158 -361 -325 -496 -56 -45 -72 -66 -106
-137 -22 -45 -38 -85 -35 -87 2 -3 49 25 103 62 188 128 355 311 435 476 93
195 92 345 -4 391 -43 20 -55 20 -146 -8z"/>
<path d="M2857 2812 l-118 -119 -6 -79 -6 -79 28 25 c15 14 76 77 135 140
l107 115 -11 57 -12 58 -117 -118z"/>
<path d="M1120 2856 c-101 -26 -211 -121 -322 -277 -81 -112 -134 -213 -218
-409 -100 -233 -268 -765 -249 -784 9 -9 113 29 228 85 114 54 280 160 322
206 46 49 277 555 355 776 67 192 72 329 14 382 -28 25 -80 34 -130 21z"/>
</g>
</svg>
